# xmcd CD database file
#
# Track frame offsets:
#	150
#	37191
#	66594
#	90132
#	116469
#	141455
#	163516
#	190707
#	216096
#
# Disc length: 3153 seconds
#
# Revision: 0
# Processed by: cddbd v1.5.2PL0 Copyright (c) Steve Scherf et al.
# Submitted via: CDex 1.70beta2
#
DISCID=7e0c4f09
DTITLE=Jaska Lukkarinen Trio - Trane Ear
DYEAR=2008
DGENRE=Jazz
TTITLE0=Segment
TTITLE1=Stewardess
TTITLE2=Double Fault
TTITLE3=Mh2Ym aka Substitute
TTITLE4=I Guess I Had Something
TTITLE5=Trane Ear
TTITLE6=Signal
TTITLE7=Seven Steps to Heaven
TTITLE8=Kiss the Joy
EXTD=YEAR: 2008
EXTT0=
EXTT1=
EXTT2=
EXTT3=
EXTT4=
EXTT5=
EXTT6=
EXTT7=
EXTT8=
PLAYORDER=
